<svg width="206" height="206" viewBox="0 0 206 206" fill="none" xmlns="http://www.w3.org/2000/svg">
<path fill-rule="evenodd" clip-rule="evenodd" d="M3.70435 130.473C4.22522 132.359 4.79846 134.224 5.42236 136.066L136.066 5.42236C134.224 4.79846 132.359 4.22522 130.473 3.70435L3.70435 130.473ZM129.359 3.40369C127.403 2.88745 125.425 2.42737 123.426 2.02515L2.02518 123.426C2.4274 125.425 2.88751 127.403 3.40372 129.359L129.359 3.40369ZM15.1206 49.2484C12.2371 53.9526 9.7207 58.9062 7.61133 64.0693L64.0695 7.61121C58.9063 9.72058 53.9526 12.2371 49.2483 15.1206L15.1206 49.2484ZM17.6907 45.264C25.0464 34.4166 34.4167 25.0464 45.264 17.6907L17.6907 45.264ZM0.802765 115.922C1.06906 118.05 1.40027 120.157 1.79431 122.242L122.242 1.79431C120.157 1.40027 118.05 1.06909 115.922 0.802734L0.802765 115.922ZM114.658 0.652466C112.421 0.400513 110.163 0.220215 107.885 0.11377L0.1138 107.885C0.220154 110.163 0.400482 112.421 0.652466 114.658L114.658 0.652466ZM106.526 0.0592041C105.355 0.0198975 104.18 0 103 0C101.729 0 100.464 0.0229492 99.2043 0.0686035L0.068634 99.2042C0.0230103 100.464 0 101.729 0 103C0 104.18 0.0198364 105.355 0.0592041 106.526L106.526 0.0592041ZM24.9946 170.264C26.1223 171.571 27.2823 172.849 28.4734 174.097L174.097 28.4734C172.849 27.2823 171.571 26.1223 170.264 24.9946L24.9946 170.264ZM174.818 29.1674L29.1674 174.818C30.3693 176.053 31.602 177.258 32.8642 178.432L178.433 32.8643C177.258 31.6021 176.053 30.3693 174.818 29.1674ZM24.3429 169.502L169.502 24.3429C168.179 23.2234 166.828 22.1367 165.449 21.084L21.0839 165.449C22.1366 166.828 23.2234 168.179 24.3429 169.502ZM20.4752 164.644L164.643 20.4752C163.245 19.4287 161.818 18.4169 160.366 17.441L17.441 160.366C18.4168 161.818 19.4286 163.245 20.4752 164.644ZM16.8764 159.516L159.516 16.8763C158.039 15.9049 156.535 14.9706 155.006 14.0745L14.0745 155.006C14.9706 156.535 15.905 158.039 16.8764 159.516ZM154.111 13.5557C152.552 12.6627 150.967 11.8094 149.358 10.9971L10.9971 149.358C11.8094 150.967 12.6628 152.552 13.5557 154.111L154.111 13.5557ZM97.726 0.13269C95.0204 0.269165 92.3423 0.51001 89.6957 0.851318L0.851349 89.6957C0.51001 92.3423 0.269165 95.0204 0.13269 97.7261L97.726 0.13269ZM148.414 10.5266C146.768 9.71667 145.097 8.94934 143.403 8.2262L8.2262 143.403C8.9494 145.097 9.71674 146.768 10.5267 148.414L148.414 10.5266ZM88.0568 1.07605C84.9966 1.52075 81.9799 2.1001 79.0131 2.80774L2.80786 79.0131C2.10019 81.9799 1.52087 84.9965 1.07611 88.0566L88.0568 1.07605ZM142.407 7.8075C140.668 7.08655 138.904 6.41187 137.118 5.78503L5.785 137.118C6.41183 138.904 7.08652 140.668 7.80746 142.407L142.407 7.8075ZM77.1312 3.27563C73.4727 4.22192 69.8931 5.36426 66.4042 6.69067L6.69073 66.4042C5.36429 69.8931 4.22198 73.4727 3.27567 77.1311L77.1312 3.27563ZM179.111 33.6003L33.6003 179.111C34.8764 180.275 36.1819 181.407 37.5155 182.507L182.507 37.5156C181.408 36.182 180.275 34.8765 179.111 33.6003ZM183.143 38.2942L38.2941 183.143C39.6452 184.235 41.0246 185.294 42.4308 186.318L186.318 42.4309C185.294 41.0247 184.235 39.6453 183.143 38.2942ZM186.91 43.2527L43.2526 186.91C44.6806 187.929 46.1357 188.912 47.6167 189.858L189.858 47.6167C188.912 46.1357 187.929 44.6807 186.91 43.2527ZM190.406 48.4832L48.4832 190.406C49.9908 191.348 51.5245 192.253 53.083 193.118L193.118 53.0831C192.252 51.5245 191.348 49.9907 190.406 48.4832ZM71.3369 201.042C69.5141 200.453 67.7135 199.816 65.9367 199.13L199.13 65.9368C199.816 67.7136 200.453 69.5142 201.042 71.3369L71.3369 201.042ZM72.4112 201.382L201.382 72.4111C201.967 74.2941 202.499 76.2002 202.977 78.1278L78.1278 202.977C76.2003 202.499 74.2942 201.967 72.4112 201.382ZM53.9962 193.619C55.5876 194.481 57.2042 195.302 58.8446 196.082L196.082 58.8447C195.303 57.2042 194.481 55.5876 193.619 53.9963L53.9962 193.619ZM196.534 59.8074L59.8074 196.533C61.4878 197.311 63.1928 198.044 64.9207 198.732L198.732 64.9208C198.044 63.1927 197.311 61.4878 196.534 59.8074ZM103 206L102.697 206L206 102.698L206 103C206 105.441 205.915 107.862 205.748 110.26L110.261 205.748C107.862 205.915 105.441 206 103 206ZM111.793 205.63L205.63 111.793C205.391 114.615 205.039 117.405 204.577 120.157L120.157 204.577C117.405 205.039 114.615 205.391 111.793 205.63ZM121.875 204.274L204.275 121.874C203.674 125.118 202.921 128.307 202.025 131.436L131.436 202.024C128.307 202.921 125.118 203.674 121.875 204.274ZM133.45 201.425L201.425 133.45C200.18 137.478 198.695 141.401 196.986 145.201L145.201 196.986C141.401 198.695 137.478 200.18 133.45 201.425ZM147.854 195.747L195.747 147.854C192.237 155.099 187.903 161.87 182.867 168.046L168.046 182.867C161.87 187.903 155.099 192.237 147.854 195.747ZM94.3305 205.64C96.6319 205.832 98.9548 205.948 101.297 205.986L205.986 101.297C205.948 98.9548 205.832 96.632 205.64 94.3306L94.3305 205.64ZM86.5511 204.694C88.6903 205.037 90.8516 205.314 93.0327 205.524L205.524 93.0327C205.315 90.8516 205.037 88.6904 204.694 86.5511L86.5511 204.694ZM79.2667 203.252C81.2689 203.725 83.2936 204.138 85.3389 204.492L204.492 85.3389C204.138 83.2935 203.724 81.2688 203.252 79.2666L79.2667 203.252Z" fill="url(#paint0_linear_30_148)" fill-opacity="0.45"/>
<defs>
<linearGradient id="paint0_linear_30_148" x1="19.5158" y1="19.5158" x2="183.774" y2="206" gradientUnits="userSpaceOnUse">
<stop stop-color="#73939C"/>
<stop offset="0.666667" stop-color="#5B6365"/>
<stop offset="1" stop-color="#3F4041"/>
</linearGradient>
</defs>
</svg>
